<svg xmlns="http://www.w3.org/2000/svg" viewBox="0 0 1040 450" role="img" aria-label="Overview: customers and support agents use the Next.js frontend, which relays to the FastAPI and LangGraph backend; the backend uses PostgreSQL and four external systems that are mocked locally." style="width:100%;height:auto;max-width:1040px;display:block;margin:0 auto" font-family="inherit"><style>svg{color:#1f2328;font-family:-apple-system,BlinkMacSystemFont,'Segoe UI',Helvetica,Arial,sans-serif}@media (prefers-color-scheme:dark){svg{color:#e6edf3}}</style><defs><marker id="sa1-a" viewBox="0 0 10 10" refX="9" refY="5" markerWidth="7" markerHeight="7" orient="auto-start-reverse"><path d="M0 0L10 5L0 10z" fill="currentColor" fill-opacity="1"/></marker><marker id="sa1-g" viewBox="0 0 10 10" refX="9" refY="5" markerWidth="7" markerHeight="7" orient="auto-start-reverse"><path d="M0 0L10 5L0 10z" fill="currentColor" fill-opacity="0.5"/></marker><marker id="sa1-o" viewBox="0 0 10 10" refX="9" refY="5" markerWidth="7" markerHeight="7" orient="auto-start-reverse"><path d="M0 0L10 5L0 10z" fill="#d97706" fill-opacity="1"/></marker><marker id="sa1-n" viewBox="0 0 10 10" refX="9" refY="5" markerWidth="7" markerHeight="7" orient="auto-start-reverse"><path d="M0 0L10 5L0 10z" fill="#059669" fill-opacity="1"/></marker></defs><text x="520.0" y="24" font-size="14" text-anchor="middle" fill="currentColor" fill-opacity="0.6" font-weight="700">Two services, one database, four external systems</text><line x1="8" y1="34" x2="1032" y2="34" stroke="currentColor" stroke-opacity="0.15"/><rect x="20" y="90" width="140" height="56" rx="28.0" fill="currentColor" fill-opacity="0.05" stroke="currentColor" stroke-width="1.6" stroke-opacity="0.45"/><text x="90.0" y="115.0" font-size="14" text-anchor="middle" fill="currentColor" font-weight="650" >Customer</text><text x="90.0" y="132.0" font-size="11.5" text-anchor="middle" fill="currentColor" fill-opacity="0.72">/s/{token}</text><rect x="20" y="226" width="140" height="56" rx="28.0" fill="currentColor" fill-opacity="0.05" stroke="currentColor" stroke-width="1.6" stroke-opacity="0.45"/><text x="90.0" y="251.0" font-size="14" text-anchor="middle" fill="currentColor" font-weight="650" >Support agent</text><text x="90.0" y="268.0" font-size="11.5" text-anchor="middle" fill="currentColor" fill-opacity="0.72">/agent</text><rect x="185" y="56" width="240" height="250" rx="9" fill="none" stroke="currentColor" stroke-opacity="0.4" stroke-width="1.4" stroke-dasharray="7 5"/><text x="197" y="74" font-size="12" text-anchor="start" fill="currentColor" fill-opacity="0.95" font-weight="700">Frontend service: Next.js</text><rect x="205" y="90" width="200" height="56" rx="6" fill="#059669" fill-opacity="0.14" stroke="#059669" stroke-width="1.6" stroke-opacity="0.9"/><text x="305.0" y="113.5" font-size="14" text-anchor="middle" fill="currentColor" font-weight="650" >Customer app</text><text x="305.0" y="130.5" font-size="11.5" text-anchor="middle" fill="currentColor" fill-opacity="0.72">+ agent console</text><rect x="205" y="220" width="200" height="56" rx="6" fill="#059669" fill-opacity="0.14" stroke="#059669" stroke-width="1.6" stroke-opacity="0.9"/><text x="305.0" y="243.5" font-size="14" text-anchor="middle" fill="currentColor" font-weight="650" >/api/* relay</text><text x="305.0" y="260.5" font-size="11.5" text-anchor="middle" fill="currentColor" fill-opacity="0.72">(incl. SSE)</text><rect x="450" y="160" width="270" height="146" rx="9" fill="none" stroke="currentColor" stroke-opacity="0.4" stroke-width="1.4" stroke-dasharray="7 5"/><text x="462" y="178" font-size="12" text-anchor="start" fill="currentColor" fill-opacity="0.95" font-weight="700">Backend service: FastAPI + LangGraph</text><rect x="470" y="213" width="230" height="70" rx="6" fill="#059669" fill-opacity="0.14" stroke="#059669" stroke-width="1.6" stroke-opacity="0.9"/><text x="585.0" y="245.0" font-size="14" text-anchor="middle" fill="currentColor" font-weight="650" >Onboarding graph</text><text x="585.0" y="262.0" font-size="11.5" text-anchor="middle" fill="currentColor" fill-opacity="0.72">code / LLM / wait nodes</text><path d="M470 343 A115.0 7 0 0 1 700 343 V389 A115.0 7 0 0 1 470 389 Z" fill="currentColor" fill-opacity="0.05" stroke="currentColor" stroke-opacity="0.45" stroke-width="1.6"/><path d="M470 343 A115.0 7 0 0 0 700 343" fill="none" stroke="currentColor" stroke-opacity="0.45" stroke-width="1.6"/><text x="585.0" y="366.5" font-size="14" text-anchor="middle" fill="currentColor" font-weight="650" >PostgreSQL</text><text x="585.0" y="383.5" font-size="11.5" text-anchor="middle" fill="currentColor" fill-opacity="0.72">checkpoint · domain · catalog</text><rect x="750" y="56" width="270" height="340" rx="9" fill="none" stroke="currentColor" stroke-opacity="0.4" stroke-width="1.4" stroke-dasharray="7 5"/><text x="762" y="74" font-size="12" text-anchor="start" fill="currentColor" fill-opacity="0.95" font-weight="700">External systems (mock locally)</text><rect x="770" y="90" width="230" height="54" rx="6" fill="currentColor" fill-opacity="0.05" stroke="currentColor" stroke-width="1.6" stroke-opacity="0.45" stroke-dasharray="5 4"/><text x="885.0" y="122.0" font-size="14" text-anchor="middle" fill="currentColor" font-weight="650" >Partner</text><rect x="770" y="164" width="230" height="54" rx="6" fill="currentColor" fill-opacity="0.05" stroke="currentColor" stroke-width="1.6" stroke-opacity="0.45" stroke-dasharray="5 4"/><text x="885.0" y="196.0" font-size="14" text-anchor="middle" fill="currentColor" font-weight="650" >Identity (OTP, document)</text><rect x="770" y="238" width="230" height="54" rx="6" fill="currentColor" fill-opacity="0.05" stroke="currentColor" stroke-width="1.6" stroke-opacity="0.45" stroke-dasharray="5 4"/><text x="885.0" y="270.0" font-size="14" text-anchor="middle" fill="currentColor" font-weight="650" >Contract admin</text><rect x="770" y="312" width="230" height="54" rx="6" fill="currentColor" fill-opacity="0.05" stroke="currentColor" stroke-width="1.6" stroke-opacity="0.45" stroke-dasharray="5 4"/><text x="885.0" y="344.0" font-size="14" text-anchor="middle" fill="currentColor" font-weight="650" >Bedrock: Claude Sonnet 4.6</text><line x1="162" y1="118" x2="203" y2="118" stroke="currentColor" stroke-opacity="0.8" stroke-width="1.5" marker-end="url(#sa1-a)"/><line x1="162" y1="246" x2="203" y2="140" stroke="currentColor" stroke-opacity="0.8" stroke-width="1.5" marker-end="url(#sa1-a)"/><line x1="305" y1="148" x2="305" y2="218" stroke="currentColor" stroke-opacity="0.8" stroke-width="1.5" marker-end="url(#sa1-a)"/><line x1="407" y1="248" x2="468" y2="248" stroke="currentColor" stroke-opacity="0.8" stroke-width="1.5" marker-end="url(#sa1-a)"/><line x1="585" y1="285" x2="585" y2="334" stroke="currentColor" stroke-opacity="0.8" stroke-width="1.5" marker-end="url(#sa1-a)"/><line x1="702" y1="236" x2="768" y2="117" stroke="currentColor" stroke-opacity="0.8" stroke-width="1.5" marker-end="url(#sa1-a)"/><line x1="702" y1="244" x2="768" y2="191" stroke="currentColor" stroke-opacity="0.8" stroke-width="1.5" marker-end="url(#sa1-a)"/><line x1="702" y1="252" x2="768" y2="265" stroke="currentColor" stroke-opacity="0.8" stroke-width="1.5" marker-end="url(#sa1-a)"/><line x1="702" y1="260" x2="768" y2="339" stroke="currentColor" stroke-opacity="0.8" stroke-width="1.5" marker-end="url(#sa1-a)"/><rect x="20" y="420" width="22" height="14" rx="4" fill="#059669" fill-opacity="0.14" stroke="#059669" stroke-width="1.6"/><text x="50" y="431.5" font-size="12" text-anchor="start" fill="currentColor" fill-opacity="0.8" font-weight="400">Built in this repo</text><rect x="196.8" y="420" width="22" height="14" rx="4" fill="currentColor" fill-opacity="0.05" stroke="currentColor" stroke-opacity="0.6" stroke-width="1.4" stroke-dasharray="4 3"/><text x="226.8" y="431.5" font-size="12" text-anchor="start" fill="currentColor" fill-opacity="0.8" font-weight="400">External system, mocked locally</text></svg>
